<svg fill="none" height="24" viewBox="0 0 24 24" width="24" xmlns="http://www.w3.org/2000/svg"><g fill="#292d32"><path d="m18.0003 16.7503c-.16 0-.31-.05-.45-.15-.33-.25-.4-.72-.15-1.05 1.57-2.09 1.57-5.01 0-7.10003-.25-.33-.18-.8.15-1.05s.8-.18 1.05.15c1.96 2.62003 1.96 6.28003 0 8.90003-.15.2-.37.3-.6.3z"/><path d="m19.8284 19.2503c-.16 0-.31-.05-.45-.15-.33-.25-.4-.72-.15-1.05 2.67-3.56 2.67-8.54003 0-12.10003-.25-.33-.18-.8.15-1.05s.8-.18 1.05.15c3.07 4.09 3.07 9.81003 0 13.90003-.14.2-.37.3-.6.3z"/><path d="m14.02 3.78168c-1.12-.62-2.55-.46-4.01.45l-2.92 1.83c-.2.12-.43.19-.66.19h-.93-.5c-2.42 0-3.75 1.33-3.75 3.75002v4c0 2.42 1.33 3.75 3.75 3.75h.5.93c.23 0 .46.07.66.19l2.92 1.83c.88.55 1.74.82 2.54.82.52 0 1.02-.12 1.47-.37 1.11-.62 1.73-1.91 1.73-3.63v-9.18002c0-1.72-.62-3.01-1.73-3.63z"/></g></svg>