<svg fill="none" height="24" viewBox="0 0 24 24" width="24" xmlns="http://www.w3.org/2000/svg"><g fill="#292d32"><path d="m22.5314 13.4197-1.45-1.45 1.4-1.4c.29-.29.29-.77001 0-1.06001s-.77-.29-1.06 0l-1.4 1.40001-1.45-1.45001c-.29-.29-.77-.29-1.06 0s-.29.77001 0 1.06001l1.45 1.45-1.49 1.49c-.29.29-.29.77 0 1.06.15.15.34.22.53.22s.38-.07.53-.22l1.49-1.49 1.45 1.45c.15.15.34.22.53.22s.38-.07.53-.22c.29-.29.29-.76 0-1.06z"/><path d="m14.02 3.78168c-1.12-.62-2.55-.46-4.01.45l-2.92 1.83c-.2.12-.43.19-.66.19h-.93-.5c-2.42 0-3.75 1.33-3.75 3.75002v4c0 2.42 1.33 3.75 3.75 3.75h.5.93c.23 0 .46.07.66.19l2.92 1.83c.88.55 1.74.82 2.54.82.52 0 1.02-.12 1.47-.37 1.11-.62 1.73-1.91 1.73-3.63v-9.18002c0-1.72-.62-3.01-1.73-3.63z"/></g></svg>